<svg xmlns="http://www.w3.org/2000/svg" xmlns:xlink="http://www.w3.org/1999/xlink" viewBox="0 0 290.085 51.821">
  <defs>
    <style>
      .a {
        fill: none;
      }

      .b {
        fill: #fff;
      }

      .c {
        fill: #4d4d4d;
      }

      .d {
        clip-path: url(#a);
      }
    </style>
    <clipPath id="a" transform="translate(0 0)">
      <rect class="a" x="236.925" width="21.108" height="51.821"/>
    </clipPath>
  </defs>
  <title>4andOneQuarterStars</title>
  <path class="b" d="M.12,19.574H1.755c5.391,0,10.782-.032,16.172.025a1.736,1.736,0,0,0,2.053-1.471c1.651-5.549,3.434-11.059,5.172-16.583.138-.439.3-.871.526-1.546l5.4,17.231c.734,2.343.735,2.343,3.236,2.343H51.194l.108.34c-2.2,1.665-11.893,9-14.583,10.935a1.622,1.622,0,0,0-.726,2.171c1.8,5.555,5.6,17.973,5.491,18.8L27.2,40.422a2.481,2.481,0,0,0-3.092,0L9.822,51.82l-.28-.2c.266-.924,4.057-13.345,5.773-18.6a1.631,1.631,0,0,0-.723-2.171C9.7,27.242,4.859,23.578,0,19.933Z" transform="translate(0 0)"/>
  <path class="b" d="M59.583,19.574h1.635c5.391,0,10.782-.032,16.172.025a1.736,1.736,0,0,0,2.053-1.471c1.651-5.549,3.434-11.059,5.172-16.583.138-.439.3-.871.526-1.546l5.4,17.231c.734,2.343.735,2.343,3.236,2.343h16.882l.108.34c-2.2,1.665-11.893,9-14.583,10.935a1.622,1.622,0,0,0-.726,2.171c1.8,5.555,5.6,17.973,5.491,18.8l-14.281-11.4a2.481,2.481,0,0,0-3.092,0L69.286,51.82l-.28-.2c.266-.924,4.057-13.345,5.773-18.6a1.631,1.631,0,0,0-.723-2.171c-4.887-3.608-9.732-7.272-14.592-10.917Z" transform="translate(0 0)"/>
  <path class="b" d="M119.047,19.574h1.635c5.391,0,10.782-.032,16.172.025a1.736,1.736,0,0,0,2.053-1.471c1.651-5.549,3.434-11.059,5.172-16.583.138-.439.3-.871.526-1.546L150,17.231c.734,2.343.735,2.343,3.236,2.343h16.882l.108.34c-2.2,1.665-11.893,9-14.583,10.935a1.622,1.622,0,0,0-.726,2.171c1.8,5.555,5.6,17.973,5.491,18.8l-14.281-11.4a2.481,2.481,0,0,0-3.092,0l-14.289,11.4-.28-.2c.266-.924,4.057-13.345,5.773-18.6a1.631,1.631,0,0,0-.723-2.171c-4.887-3.608-9.732-7.272-14.592-10.917Z" transform="translate(0 0)"/>
  <path class="b" d="M178.51,19.574h1.635c5.391,0,10.782-.032,16.172.025a1.736,1.736,0,0,0,2.053-1.471c1.651-5.549,3.434-11.059,5.172-16.583.138-.439.3-.871.526-1.546l5.4,17.231c.734,2.343.735,2.343,3.236,2.343h16.882l.108.34c-2.2,1.665-11.893,9-14.583,10.935a1.622,1.622,0,0,0-.726,2.171c1.8,5.555,5.6,17.973,5.491,18.8l-14.281-11.4a2.481,2.481,0,0,0-3.092,0l-14.289,11.4-.28-.2c.266-.924,4.057-13.345,5.773-18.6a1.631,1.631,0,0,0-.723-2.171c-4.887-3.608-9.732-7.272-14.592-10.917Z" transform="translate(0 0)"/>
  <path class="c" d="M238.9,19.574h1.635c5.391,0,10.782-.032,16.172.025a1.736,1.736,0,0,0,2.053-1.471c1.651-5.549,3.434-11.059,5.172-16.583.138-.439.3-.871.526-1.546l5.4,17.231c.734,2.343.735,2.343,3.236,2.343h16.882l.108.34c-2.2,1.665-11.893,9-14.583,10.935a1.622,1.622,0,0,0-.726,2.171c1.8,5.555,5.6,17.973,5.491,18.8l-14.281-11.4a2.481,2.481,0,0,0-3.092,0L248.6,51.82l-.28-.2c.266-.924,4.057-13.345,5.773-18.6a1.631,1.631,0,0,0-.723-2.171c-4.887-3.608-9.732-7.272-14.592-10.917Z" transform="translate(0 0)"/>
  <g class="d">
    <path class="b" d="M238.9,19.574h1.635c5.391,0,10.782-.032,16.172.025a1.736,1.736,0,0,0,2.053-1.471c1.651-5.549,3.434-11.059,5.172-16.583.138-.439.3-.871.526-1.546l5.4,17.231c.734,2.343.735,2.343,3.236,2.343h16.882l.108.34c-2.2,1.665-11.893,9-14.583,10.935a1.622,1.622,0,0,0-.726,2.171c1.8,5.555,5.6,17.973,5.491,18.8l-14.281-11.4a2.481,2.481,0,0,0-3.092,0L248.6,51.82l-.28-.2c.266-.924,4.057-13.345,5.773-18.6a1.631,1.631,0,0,0-.723-2.171c-4.887-3.608-9.732-7.272-14.592-10.917Z" transform="translate(0 0)"/>
  </g>
</svg>
