<svg xmlns="http://www.w3.org/2000/svg" viewBox="0 0 94.1 94.082">
  <defs>
    <style>
      .a {
        fill: #fff;
      }
    </style>
  </defs>
  <title>arrowLeft</title>
  <path class="a" d="M50.459,2.959A47.041,47.041,0,1,0,97.51,50.01,47.052,47.052,0,0,0,50.459,2.959Zm7.687,69.453a4.837,4.837,0,0,1-6.777-1.026c-2.807-3.814-5.189-7.087-7.551-10.34-1.9-2.633-3.814-5.266-5.944-8.171a4.822,4.822,0,0,1,0-5.731c1.936-2.653,3.7-5.092,5.422-7.474,2.652-3.679,5.189-7.183,8.113-11.075A4.841,4.841,0,1,1,59.153,34.4c-2.885,3.834-5.4,7.3-8.016,10.94-1.084,1.51-2.208,3.059-3.369,4.666,1.336,1.839,2.614,3.582,3.892,5.344,2.343,3.233,4.7,6.486,7.512,10.281A4.852,4.852,0,0,1,58.146,72.412Z" transform="translate(-3.409 -2.959)"/>
</svg>
