<svg version="1.1" id="Layer_1" xmlns="http://www.w3.org/2000/svg" xmlns:xlink="http://www.w3.org/1999/xlink" x="0px" y="0px"
	 viewBox="0 0 21.5 19.4" enable-background="new 0 0 21.5 19.4" xml:space="preserve">
<g>
	<line fill="#FFFFFF" x1="3.4" y1="3.4" x2="18.3" y2="3.4"/>
	<path fill="#231F20" d="M18.3,4.6H3.4c-0.7,0-1.2-0.6-1.2-1.2s0.6-1.2,1.2-1.2h14.9c0.7,0,1.2,0.6,1.2,1.2S19,4.6,18.3,4.6z"/>
</g>
<g>
	<line fill="#FFFFFF" x1="3.4" y1="9.7" x2="18.3" y2="9.7"/>
	<path fill="#231F20" d="M18.3,10.9H3.4c-0.7,0-1.2-0.6-1.2-1.2s0.6-1.2,1.2-1.2h14.9c0.7,0,1.2,0.6,1.2,1.2S19,10.9,18.3,10.9z"/>
</g>
<g>
	<line fill="#FFFFFF" x1="3.4" y1="15.9" x2="18.3" y2="15.9"/>
	<path fill="#231F20" d="M18.3,17.2H3.4c-0.7,0-1.2-0.6-1.2-1.2c0-0.7,0.6-1.2,1.2-1.2h14.9c0.7,0,1.2,0.6,1.2,1.2
		C19.5,16.6,19,17.2,18.3,17.2z"/>
</g>
</svg>
