<svg xmlns="http://www.w3.org/2000/svg" viewBox="0 0 310.161 90.417">
  <defs>
    <style>
      .a, .b {
        fill: #f60;
      }

      .a {
        opacity: 0.5;
      }

      .c {
        fill: #fff;
      }
    </style>
  </defs>
  <title>logo_iWantSolar</title>
  <path class="a" d="M.92,46.149A46.1,46.1,0,0,1,4.373,28.425a43.37,43.37,0,0,1,9.461-14.418A46,46,0,0,1,46.273.792,44.166,44.166,0,0,1,64.148,4.4a47.891,47.891,0,0,1,14.415,9.61A45.249,45.249,0,0,1,91.931,46.149,44.561,44.561,0,0,1,78.563,78.29a45.761,45.761,0,0,1-32.29,12.918,46.989,46.989,0,0,1-18.024-3.457A42.77,42.77,0,0,1,4.373,64.02,45.7,45.7,0,0,1,.92,46.149Z" transform="translate(-0.92 -0.792)"/>
  <path class="b" d="M18.035,46.093A28.759,28.759,0,0,1,20.19,35.036a27.057,27.057,0,0,1,5.9-9A28.7,28.7,0,0,1,46.33,17.8a27.554,27.554,0,0,1,11.152,2.249,29.878,29.878,0,0,1,8.993,6,28.23,28.23,0,0,1,8.34,20.052,27.8,27.8,0,0,1-8.34,20.052A28.549,28.549,0,0,1,46.33,74.2a29.315,29.315,0,0,1-11.245-2.157,26.683,26.683,0,0,1-14.9-14.805A28.511,28.511,0,0,1,18.035,46.093Z" transform="translate(-0.92 -0.792)"/>
  <path class="c" d="M46.36,60.98a20.158,20.158,0,0,1-3.42-.29V84.36H49.91V60.66A18.838,18.838,0,0,1,46.36,60.98Z" transform="translate(-0.92 -0.792)"/>
  <path class="c" d="M95.01,57.87a1.811,1.811,0,0,0-1.11.34,1.749,1.749,0,0,0-.649.85l-3.9,14.15c-.2.79-.38,1.55-.54,2.29s-.3,1.49-.439,2.22c-.17-.73-.351-1.48-.551-2.22s-.409-1.5-.63-2.29l-4.26-14.2a1.584,1.584,0,0,0-.64-.85,1.91,1.91,0,0,0-1.15-.34H78.33a1.758,1.758,0,0,0-1.1.34,1.557,1.557,0,0,0-.6.85l-4.39,14.2c-.24.77-.471,1.53-.69,2.27s-.41,1.47-.6,2.19q-.18-1.08-.391-2.19c-.14-.74-.3-1.5-.49-2.27l-3.8-14.15a1.519,1.519,0,0,0-.64-.85,2.012,2.012,0,0,0-1.19-.34H59.36L67.75,84.36h4.9a1.339,1.339,0,0,0,1.37-1.14l4.83-15.25c.311-1.04.57-2.07.771-3.1a23.174,23.174,0,0,0,.75,3.04l4.75,15.31c.22.76.63,1.14,1.21,1.14h5.12L99.86,57.87Z" transform="translate(-0.92 -0.792)"/>
  <path class="c" d="M122.7,63.5a8.933,8.933,0,0,0-1.931-3.24,8.822,8.822,0,0,0-3.09-2.12,10.936,10.936,0,0,0-4.16-.76,15.756,15.756,0,0,0-11,4.18l1.141,2.04a2.887,2.887,0,0,0,.75.82,1.825,1.825,0,0,0,1.13.34,2.8,2.8,0,0,0,1.41-.36c.42-.24.89-.51,1.4-.81a10.822,10.822,0,0,1,1.8-.81,7.837,7.837,0,0,1,2.57-.36A4.164,4.164,0,0,1,116,63.69a5.864,5.864,0,0,1,1.13,3.94v1.55a34.423,34.423,0,0,0-7.59.88,16.493,16.493,0,0,0-4.88,1.95,7.444,7.444,0,0,0-2.62,2.63,6.2,6.2,0,0,0-.78,2.96,7.938,7.938,0,0,0,.56,3.12,6.339,6.339,0,0,0,1.6,2.25,6.827,6.827,0,0,0,2.46,1.35,10.158,10.158,0,0,0,3.09.45,13.019,13.019,0,0,0,2.6-.23,9.985,9.985,0,0,0,2.21-.7,10.946,10.946,0,0,0,1.98-1.15,23.1,23.1,0,0,0,1.97-1.58l.561,1.88a1.883,1.883,0,0,0,.779,1.1,2.93,2.93,0,0,0,1.391.27h2.89V67.63A12.693,12.693,0,0,0,122.7,63.5Zm-5.57,14.02a9.961,9.961,0,0,1-2.8,2.15,7.467,7.467,0,0,1-3.391.71,4.327,4.327,0,0,1-2.6-.72,2.768,2.768,0,0,1-.99-2.4,2.7,2.7,0,0,1,.49-1.57,3.917,3.917,0,0,1,1.63-1.27,12.14,12.14,0,0,1,3-.89,35.963,35.963,0,0,1,4.66-.48Z" transform="translate(-0.92 -0.792)"/>
  <path class="c" d="M151.84,63.44a8.906,8.906,0,0,0-1.7-3.18,7.671,7.671,0,0,0-2.8-2.07,9.513,9.513,0,0,0-3.85-.73,11.367,11.367,0,0,0-2.48.26,9.6,9.6,0,0,0-2.13.75A11.05,11.05,0,0,0,137,59.63a13.943,13.943,0,0,0-1.69,1.49l-.439-2.09a1.574,1.574,0,0,0-1.63-1.16h-3.9V84.36h6.38V65.2a11.042,11.042,0,0,1,2.74-2.04,6.706,6.706,0,0,1,3.09-.74,4.153,4.153,0,0,1,3.39,1.33,5.667,5.667,0,0,1,1.11,3.75V84.36h6.37V67.5A13.377,13.377,0,0,0,151.84,63.44Z" transform="translate(-0.92 -0.792)"/>
  <path class="c" d="M171.97,79.33a2.114,2.114,0,0,0-.39-.43.762.762,0,0,0-.46-.14.946.946,0,0,0-.471.14c-.149.09-.33.19-.529.3a5.339,5.339,0,0,1-.7.29,2.787,2.787,0,0,1-.99.15,2.087,2.087,0,0,1-1.66-.7A2.838,2.838,0,0,1,166.16,77V62.65h7.069V58.1H166.16V49.77H162.85a1.441,1.441,0,0,0-.92.28,1.416,1.416,0,0,0-.5.8l-1.34,7.23-4.26.7v2.53a1.3,1.3,0,0,0,.359,1,1.231,1.231,0,0,0,.88.34h2.71V77.44a7.507,7.507,0,0,0,1.851,5.38,6.952,6.952,0,0,0,5.3,1.95,12.156,12.156,0,0,0,3.75-.59,9.682,9.682,0,0,0,3.2-1.76Z" transform="translate(-0.92 -0.792)"/>
  <path class="c" d="M194.22,76.66a5.92,5.92,0,0,0-1.29-1.9,6.135,6.135,0,0,0-1.89-1.26,5.783,5.783,0,0,0-2.351-.48,6.124,6.124,0,0,0-4.27,1.74,5.632,5.632,0,0,0-1.24,1.9,6.182,6.182,0,0,0,0,4.68,5.6,5.6,0,0,0,1.24,1.87,5.672,5.672,0,0,0,1.9,1.25,6.179,6.179,0,0,0,2.37.45,6.116,6.116,0,0,0,2.351-.45,5.945,5.945,0,0,0,3.18-7.8Z" transform="translate(-0.92 -0.792)"/>
  <path class="c" d="M221.1,73.23a6.424,6.424,0,0,0-1.47-1.95,8.342,8.342,0,0,0-2.08-1.34,25.153,25.153,0,0,0-2.36-.94c-.8-.28-1.59-.53-2.359-.76a15.358,15.358,0,0,1-2.08-.79,4.9,4.9,0,0,1-1.471-1.02,2,2,0,0,1-.56-1.43,2.5,2.5,0,0,1,1.07-2.09,4.817,4.817,0,0,1,2.96-.8,7.653,7.653,0,0,1,2.1.25,11.544,11.544,0,0,1,1.59.59c.46.21.87.4,1.23.58a2.26,2.26,0,0,0,.99.25,1.42,1.42,0,0,0,.72-.16,1.935,1.935,0,0,0,.55-.58l1.44-2.3a11.379,11.379,0,0,0-3.74-2.38,13.314,13.314,0,0,0-4.99-.9,12.99,12.99,0,0,0-4.32.66,9.357,9.357,0,0,0-3.119,1.75,7.2,7.2,0,0,0-1.9,2.57,7.665,7.665,0,0,0-.65,3.1,7.25,7.25,0,0,0,.561,2.99,6.394,6.394,0,0,0,1.47,2.1,8.418,8.418,0,0,0,2.09,1.4,20.744,20.744,0,0,0,2.4.97c.82.28,1.62.53,2.4.76a13.9,13.9,0,0,1,2.091.79,4.853,4.853,0,0,1,1.479,1.03,2.161,2.161,0,0,1,.55,1.53,3.148,3.148,0,0,1-.239,1.2,2.917,2.917,0,0,1-.78,1.02,4.347,4.347,0,0,1-1.34.71,6.2,6.2,0,0,1-1.95.27,7.337,7.337,0,0,1-2.39-.34,10.549,10.549,0,0,1-1.641-.72c-.46-.26-.87-.5-1.22-.72a2.048,2.048,0,0,0-1.13-.34,1.946,1.946,0,0,0-.98.23,2.147,2.147,0,0,0-.67.67l-1.47,2.43a11.406,11.406,0,0,0,1.79,1.29,13.282,13.282,0,0,0,2.22,1.03,15.709,15.709,0,0,0,2.51.69,14.735,14.735,0,0,0,2.67.24,14.411,14.411,0,0,0,4.561-.66,9.439,9.439,0,0,0,3.31-1.83,7.552,7.552,0,0,0,2.03-2.79,8.838,8.838,0,0,0,.68-3.52A6.2,6.2,0,0,0,221.1,73.23Z" transform="translate(-0.92 -0.792)"/>
  <path class="c" d="M250.31,65.41a11.927,11.927,0,0,0-2.649-4.29,11.739,11.739,0,0,0-4.131-2.71,14.513,14.513,0,0,0-5.35-.95,14.791,14.791,0,0,0-5.4.95,11.688,11.688,0,0,0-4.14,2.71,12.085,12.085,0,0,0-2.66,4.29,17.55,17.55,0,0,0,0,11.33,12.3,12.3,0,0,0,2.66,4.32,11.468,11.468,0,0,0,4.14,2.73,14.585,14.585,0,0,0,5.4.96,14.311,14.311,0,0,0,5.35-.96,11.517,11.517,0,0,0,4.131-2.73,12.14,12.14,0,0,0,2.649-4.32,17.707,17.707,0,0,0,0-11.33Zm-7.24,12.21a5.609,5.609,0,0,1-4.89,2.22,5.7,5.7,0,0,1-4.97-2.23q-1.62-2.235-1.62-6.49a11.087,11.087,0,0,1,1.62-6.52,5.675,5.675,0,0,1,4.97-2.26,5.6,5.6,0,0,1,4.89,2.24q1.591,2.25,1.591,6.54T243.07,77.62Z" transform="translate(-0.92 -0.792)"/>
  <path class="c" d="M256.2,46V84.36h6.369V46Z" transform="translate(-0.92 -0.792)"/>
  <path class="c" d="M288.51,63.5a8.945,8.945,0,0,0-1.93-3.24,8.768,8.768,0,0,0-3.1-2.12,10.845,10.845,0,0,0-4.149-.76,15.756,15.756,0,0,0-11,4.18l1.14,2.04a2.9,2.9,0,0,0,.75.82,1.806,1.806,0,0,0,1.13.34,2.79,2.79,0,0,0,1.41-.36c.42-.24.89-.51,1.4-.81a10.75,10.75,0,0,1,1.8-.81,7.831,7.831,0,0,1,2.569-.36,4.162,4.162,0,0,1,3.28,1.27,5.864,5.864,0,0,1,1.13,3.94v1.55a34.438,34.438,0,0,0-7.59.88,16.384,16.384,0,0,0-4.88,1.95,7.461,7.461,0,0,0-2.62,2.63,6.23,6.23,0,0,0-.79,2.96,7.935,7.935,0,0,0,.57,3.12,6.325,6.325,0,0,0,1.6,2.25,6.843,6.843,0,0,0,2.46,1.35,10.167,10.167,0,0,0,3.09.45,13.1,13.1,0,0,0,2.6-.23,10,10,0,0,0,2.21-.7,11.317,11.317,0,0,0,1.979-1.15,23.1,23.1,0,0,0,1.971-1.58l.56,1.88a1.884,1.884,0,0,0,.78,1.1,2.928,2.928,0,0,0,1.39.27h2.891V67.63A12.693,12.693,0,0,0,288.51,63.5Zm-5.57,14.02a9.961,9.961,0,0,1-2.8,2.15,7.465,7.465,0,0,1-3.39.71,4.328,4.328,0,0,1-2.6-.72,2.77,2.77,0,0,1-.989-2.4,2.7,2.7,0,0,1,.489-1.57,3.881,3.881,0,0,1,1.62-1.27,12.364,12.364,0,0,1,3.01-.89,35.982,35.982,0,0,1,4.66-.48Z" transform="translate(-0.92 -0.792)"/>
  <path class="c" d="M308.14,57.38a6.257,6.257,0,0,0-4.03,1.36,11.639,11.639,0,0,0-2.97,3.73l-.36-3a1.546,1.546,0,0,0-1.88-1.6h-3.75V84.36h6.38V68.04a14.305,14.305,0,0,1,.94-1.88,6.227,6.227,0,0,1,1.16-1.41,4.984,4.984,0,0,1,1.49-.89,5.487,5.487,0,0,1,1.88-.31,8.584,8.584,0,0,1,1.49.13,6.971,6.971,0,0,0,1.149.13,1.006,1.006,0,0,0,.65-.19,1.229,1.229,0,0,0,.38-.66l.41-4.78A4.947,4.947,0,0,0,308.14,57.38Z" transform="translate(-0.92 -0.792)"/>
  <path class="c" d="M34.145,46.04a12.44,12.44,0,0,1,.932-4.783,11.7,11.7,0,0,1,2.553-3.891A12.414,12.414,0,0,1,46.384,33.8a11.919,11.919,0,0,1,4.824.973,12.924,12.924,0,0,1,3.89,2.593,12.175,12.175,0,0,1,0,17.348A12.349,12.349,0,0,1,46.384,58.2a12.68,12.68,0,0,1-4.864-.933,11.542,11.542,0,0,1-6.443-6.4A12.333,12.333,0,0,1,34.145,46.04Z" transform="translate(-0.92 -0.792)"/>
</svg>
