<svg xmlns="http://www.w3.org/2000/svg" viewBox="0 0 74.088 74.088">
  <defs>
    <style>
      .a, .b {
        fill: #fff;
      }

      .a {
        opacity: 0.8;
      }

      .b {
        opacity: 0.2;
      }
    </style>
  </defs>
  <title>MicGlow</title>
  <path class="a" d="M38,61.834A23.835,23.835,0,1,1,61.835,38,23.861,23.861,0,0,1,38,61.834Zm0-46.669A22.835,22.835,0,1,0,60.835,38,22.861,22.861,0,0,0,38,15.165Z" transform="translate(-0.956 -0.956)"/>
  <path class="b" d="M38,75.044A37.044,37.044,0,1,1,75.044,38,37.086,37.086,0,0,1,38,75.044ZM38,1.706A36.294,36.294,0,1,0,74.294,38,36.335,36.335,0,0,0,38,1.706Z" transform="translate(-0.956 -0.956)"/>
</svg>
