<svg xmlns="http://www.w3.org/2000/svg" viewBox="0 0 36.634 53.578">
  <defs>
    <style>
      .a {
        fill: #206ec2;
      }
    </style>
  </defs>
  <title>microphone</title>
  <path class="a" d="M29.841,11.577V28.752a10.163,10.163,0,1,1-20.327,0V11.577a10.163,10.163,0,0,1,20.327,0Z" transform="translate(-1.352 -1.428)"/>
  <path class="a" d="M37.986,23.4V27.48A18.329,18.329,0,0,1,21.679,45.7v6.419h8.356a1.446,1.446,0,1,1,0,2.891H9.332a1.446,1.446,0,1,1,0-2.891h8.356V45.7A18.331,18.331,0,0,1,1.352,27.48V23.4A1.432,1.432,0,0,1,2.8,21.957,1.432,1.432,0,0,1,4.243,23.4V27.48a15.426,15.426,0,1,0,30.851,0V23.4a1.446,1.446,0,1,1,2.891,0Z" transform="translate(-1.352 -1.428)"/>
</svg>
