<svg xmlns="http://www.w3.org/2000/svg" xmlns:xlink="http://www.w3.org/1999/xlink" viewBox="0 0 383.522 106.97">
  <defs>
    <style>
      .a {
        fill: #fff;
      }

      .b {
        fill: url(#a);
      }
    </style>
    <radialGradient id="a" cx="253.246" cy="34.88" r="32.445" gradientUnits="userSpaceOnUse">
      <stop offset="0" stop-color="#4d4d4d" stop-opacity="0.5"/>
      <stop offset="0.128" stop-color="#5c4f46" stop-opacity="0.53"/>
      <stop offset="0.377" stop-color="#855535" stop-opacity="0.609"/>
      <stop offset="0.718" stop-color="#c55e19" stop-opacity="0.736"/>
      <stop offset="1" stop-color="#f60" stop-opacity="0.85"/>
    </radialGradient>
  </defs>
  <title>logo_SunnovaProEnergy</title>
  <g>
    <g>
      <path class="a" d="M221.87,98.016v8.214h-4.341V82.894h7.585a13.324,13.324,0,0,1,4.051.549,7.8,7.8,0,0,1,2.824,1.533,6.085,6.085,0,0,1,1.654,2.356,8.118,8.118,0,0,1,.541,3,8.285,8.285,0,0,1-.565,3.106,6.453,6.453,0,0,1-1.694,2.429,7.878,7.878,0,0,1-2.832,1.582,12.661,12.661,0,0,1-3.979.565Zm0-3.389h3.244a6.537,6.537,0,0,0,2.082-.3,3.933,3.933,0,0,0,1.477-.855,3.471,3.471,0,0,0,.88-1.355,5.2,5.2,0,0,0,.29-1.783,4.715,4.715,0,0,0-.29-1.695,3.356,3.356,0,0,0-.872-1.291,3.876,3.876,0,0,0-1.469-.815,6.957,6.957,0,0,0-2.1-.282H221.87Z" transform="translate(-3.472 -5.087)"/>
      <path class="a" d="M237.879,106.23V89.672h2.34a.964.964,0,0,1,1.179,1l.226,1.872a7.323,7.323,0,0,1,1.856-2.332A3.921,3.921,0,0,1,246,89.365a3.081,3.081,0,0,1,1.84.5l-.259,2.986a.777.777,0,0,1-.233.412.65.65,0,0,1-.412.121,4.661,4.661,0,0,1-.718-.081,5.559,5.559,0,0,0-.928-.081,3.337,3.337,0,0,0-1.179.194,2.952,2.952,0,0,0-.928.557,3.8,3.8,0,0,0-.727.879,8.57,8.57,0,0,0-.589,1.178v10.2Z" transform="translate(-3.472 -5.087)"/>
      <path class="a" d="M258.036,89.414a9.03,9.03,0,0,1,3.349.6,7.34,7.34,0,0,1,2.582,1.694,7.435,7.435,0,0,1,1.654,2.679,11.089,11.089,0,0,1,0,7.085,7.591,7.591,0,0,1-1.654,2.695,7.228,7.228,0,0,1-2.582,1.711,9.03,9.03,0,0,1-3.349.6,9.142,9.142,0,0,1-3.373-.6,7.2,7.2,0,0,1-2.59-1.711,7.694,7.694,0,0,1-1.663-2.695,10.95,10.95,0,0,1,0-7.085,7.534,7.534,0,0,1,1.663-2.679,7.311,7.311,0,0,1,2.59-1.694A9.142,9.142,0,0,1,258.036,89.414Zm0,13.992a3.506,3.506,0,0,0,3.059-1.388,6.962,6.962,0,0,0,.992-4.067,7.044,7.044,0,0,0-.992-4.083,3.492,3.492,0,0,0-3.059-1.4,3.559,3.559,0,0,0-3.106,1.412,6.955,6.955,0,0,0-1.009,4.075,6.877,6.877,0,0,0,1.009,4.059A3.575,3.575,0,0,0,258.036,103.406Z" transform="translate(-3.472 -5.087)"/>
      <path class="a" d="M294.96,82.894v3.454H284.6v6.472h8.166V96.16H284.6v6.6h10.36v3.47H280.243V82.894Z" transform="translate(-3.472 -5.087)"/>
      <path class="a" d="M299.092,106.23V89.672h2.438a.98.98,0,0,1,1.017.726l.274,1.307a9.05,9.05,0,0,1,1.057-.936,7.353,7.353,0,0,1,1.179-.726,6,6,0,0,1,1.331-.468,7,7,0,0,1,1.549-.161,5.937,5.937,0,0,1,2.405.46,4.749,4.749,0,0,1,1.751,1.291,5.684,5.684,0,0,1,1.065,1.985,8.466,8.466,0,0,1,.362,2.542V106.23h-3.985V95.692a3.569,3.569,0,0,0-.694-2.348,2.6,2.6,0,0,0-2.114-.831,4.151,4.151,0,0,0-1.937.468,6.964,6.964,0,0,0-1.711,1.275V106.23Z" transform="translate(-3.472 -5.087)"/>
      <path class="a" d="M325.608,89.414a8.113,8.113,0,0,1,2.889.5,6.3,6.3,0,0,1,2.275,1.461,6.768,6.768,0,0,1,1.493,2.356,8.78,8.78,0,0,1,.541,3.188,2.574,2.574,0,0,1-.194,1.218.8.8,0,0,1-.742.315H321.622a7.82,7.82,0,0,0,.452,2.2,4.5,4.5,0,0,0,.936,1.533,3.664,3.664,0,0,0,1.38.9,5.014,5.014,0,0,0,1.768.3,5.467,5.467,0,0,0,1.67-.226,7.759,7.759,0,0,0,1.227-.5q.524-.274.92-.5a1.548,1.548,0,0,1,.767-.226.827.827,0,0,1,.743.371l1.146,1.453a6.645,6.645,0,0,1-1.485,1.3,8.278,8.278,0,0,1-1.719.839,9.37,9.37,0,0,1-1.823.444,13.09,13.09,0,0,1-1.8.129,8.841,8.841,0,0,1-3.211-.573,7.172,7.172,0,0,1-2.582-1.694,7.941,7.941,0,0,1-1.728-2.776,10.756,10.756,0,0,1-.629-3.833,9.16,9.16,0,0,1,.549-3.187,7.656,7.656,0,0,1,1.573-2.6,7.4,7.4,0,0,1,2.5-1.751A8.248,8.248,0,0,1,325.608,89.414Zm.081,2.856a3.686,3.686,0,0,0-2.728.984,4.856,4.856,0,0,0-1.259,2.792h7.521a4.789,4.789,0,0,0-.218-1.46,3.469,3.469,0,0,0-.654-1.2,3.041,3.041,0,0,0-1.105-.815A3.8,3.8,0,0,0,325.689,92.27Z" transform="translate(-3.472 -5.087)"/>
      <path class="a" d="M337.05,106.23V89.672h2.34a.964.964,0,0,1,1.179,1l.226,1.872a7.323,7.323,0,0,1,1.856-2.332,3.921,3.921,0,0,1,2.518-.847,3.081,3.081,0,0,1,1.84.5l-.259,2.986a.777.777,0,0,1-.233.412.65.65,0,0,1-.412.121,4.661,4.661,0,0,1-.718-.081,5.559,5.559,0,0,0-.928-.081,3.337,3.337,0,0,0-1.179.194,2.952,2.952,0,0,0-.928.557,3.8,3.8,0,0,0-.727.879,8.57,8.57,0,0,0-.589,1.178v10.2Z" transform="translate(-3.472 -5.087)"/>
      <path class="a" d="M356.142,89.382a8.683,8.683,0,0,1,1.993.218,7.125,7.125,0,0,1,1.719.637h4.762v1.485q0,.71-.855.872l-1.485.274a5.1,5.1,0,0,1,.25.888,5.242,5.242,0,0,1,.089.984,4.855,4.855,0,0,1-1.855,3.906,6.385,6.385,0,0,1-2.058,1.073,8.355,8.355,0,0,1-2.559.379,9.287,9.287,0,0,1-1.823-.177q-.775.468-.774,1.049a.773.773,0,0,0,.46.734,3.759,3.759,0,0,0,1.218.331,17.048,17.048,0,0,0,1.728.121q.968.024,1.984.1a15.89,15.89,0,0,1,1.985.283,5.823,5.823,0,0,1,1.727.637,3.389,3.389,0,0,1,1.219,1.186,3.645,3.645,0,0,1,.46,1.929,4.54,4.54,0,0,1-.54,2.13,5.736,5.736,0,0,1-1.566,1.84,8.164,8.164,0,0,1-2.518,1.3,10.826,10.826,0,0,1-3.4.492,12.976,12.976,0,0,1-3.261-.363,7.773,7.773,0,0,1-2.308-.968,4.171,4.171,0,0,1-1.371-1.4,3.269,3.269,0,0,1-.452-1.646,2.81,2.81,0,0,1,.7-1.937,4.836,4.836,0,0,1,1.912-1.259,2.808,2.808,0,0,1-1.033-.9,2.579,2.579,0,0,1-.387-1.484,2.468,2.468,0,0,1,.129-.767,3.052,3.052,0,0,1,.4-.783,3.742,3.742,0,0,1,.678-.734,4.859,4.859,0,0,1,.96-.622,5.219,5.219,0,0,1-1.977-1.808,4.82,4.82,0,0,1-.719-2.646,4.858,4.858,0,0,1,1.864-3.914,6.249,6.249,0,0,1,2.082-1.073A8.851,8.851,0,0,1,356.142,89.382Zm4.5,17.591a1.076,1.076,0,0,0-.29-.783,2.046,2.046,0,0,0-.791-.476,5.488,5.488,0,0,0-1.17-.258q-.669-.081-1.42-.121t-1.55-.073q-.8-.032-1.558-.129a3.747,3.747,0,0,0-1.073.872,1.774,1.774,0,0,0-.411,1.162,1.606,1.606,0,0,0,.218.815,1.816,1.816,0,0,0,.694.654,4.126,4.126,0,0,0,1.234.428,11.133,11.133,0,0,0,3.776-.016,4.619,4.619,0,0,0,1.331-.468,2.013,2.013,0,0,0,.767-.71A1.73,1.73,0,0,0,360.645,106.972Zm-4.5-9.425a3.739,3.739,0,0,0,1.292-.2,2.538,2.538,0,0,0,.911-.557,2.3,2.3,0,0,0,.549-.855,3.126,3.126,0,0,0,.186-1.1,2.6,2.6,0,0,0-.734-1.945,3.739,3.739,0,0,0-4.405,0,2.594,2.594,0,0,0-.734,1.945,3.078,3.078,0,0,0,.186,1.082,2.361,2.361,0,0,0,.549.863,2.464,2.464,0,0,0,.92.565A3.748,3.748,0,0,0,356.142,97.548Z" transform="translate(-3.472 -5.087)"/>
      <path class="a" d="M374.411,110.781a1.537,1.537,0,0,1-.46.637,1.4,1.4,0,0,1-.863.218h-2.97l3.1-6.633-6.7-15.332h3.5a1.1,1.1,0,0,1,.734.226,1.443,1.443,0,0,1,.4.517L374.669,99a16.355,16.355,0,0,1,.532,1.759q.129-.451.282-.9t.331-.879l3.325-8.57a1.172,1.172,0,0,1,.427-.533,1.141,1.141,0,0,1,.67-.209h3.2Z" transform="translate(-3.472 -5.087)"/>
    </g>
    <g>
      <path class="a" d="M386.994,58.983c-.281.028-.492.068-.7.068-2.649,0-5.3-.011-7.945.014-.526,0-.85-.15-.992-.657q-.7-2.482-1.4-4.964c-.05-.18-.07-.369-.131-.707-.4.308-.721.549-1.038.794A30.2,30.2,0,0,1,360.626,59.9a25.589,25.589,0,0,1-13.019-1.052c-5.64-2.141-9.16-6.051-9.573-12.259-.412-6.186,2.224-10.83,7.52-13.969a25.2,25.2,0,0,1,9.106-2.868c4.866-.77,9.752-1.411,14.613-2.211,1.966-.323,3.887-.919,5.959-1.423-.1-1.9-.089-3.684-.319-5.44-.449-3.418-2.615-5.477-5.757-6.49a22.93,22.93,0,0,0-13.9-.01,8.835,8.835,0,0,0-5.582,5.285c-.436.989-.729,2.041-1.133,3.045-.087.217-.393.524-.564.5-2.785-.326-5.565-.7-8.457-1.075.2-.753.352-1.423.55-2.08,2.109-7,6.742-11.325,13.876-12.879A41.772,41.772,0,0,1,373.8,7.19a16.985,16.985,0,0,1,5.713,2.878,10.8,10.8,0,0,1,4.252,8.107c.249,2.546.432,5.108.465,7.665.09,6.912.04,13.826.137,20.738.046,3.281.132,6.585,1.428,9.694C386.165,57.161,386.573,58.036,386.994,58.983ZM375.1,33.065c-.209.054-.342.078-.467.122a62.342,62.342,0,0,1-10.695,2.583c-3.154.532-6.315,1.037-9.452,1.662a8.7,8.7,0,0,0-5.359,3.156A7.528,7.528,0,0,0,352.568,52.3c4.819,1.866,9.634,1.346,14.277-.776a12.868,12.868,0,0,0,6.988-6.962C375.306,40.872,375.145,36.992,375.1,33.065Z" transform="translate(-3.472 -5.087)"/>
      <path class="a" d="M45.742,20.51l-8.526,1.143A33.758,33.758,0,0,0,35.2,17.19c-1.449-2.279-3.789-3.279-6.375-3.712A21.111,21.111,0,0,0,18.982,14a10.026,10.026,0,0,0-3.153,1.64,5.077,5.077,0,0,0,1.143,8.94c2.876,1.163,5.923,1.909,8.9,2.813,4.656,1.413,9.4,2.585,13.958,4.257,5.336,1.957,8.177,6.835,7.915,12.5-.332,7.175-4.355,11.555-10.666,14.179-4.2,1.746-8.644,2.019-13.132,1.865a25.392,25.392,0,0,1-10.736-2.479C8.137,55.165,5.289,50.883,3.9,45.5c-.159-.615-.271-1.241-.429-1.976l8.953-1.368c.113.525.209,1,.32,1.481,1.233,5.295,4.964,8.565,10.478,9.186a20.326,20.326,0,0,0,9.564-.833c2.763-1.036,4.927-2.741,5.576-5.815a5.369,5.369,0,0,0-3.348-6.523c-2.692-1.032-5.511-1.733-8.282-2.556-4.237-1.259-8.526-2.36-12.7-3.787a12.886,12.886,0,0,1-7.964-7.182A13.439,13.439,0,0,1,11.4,9.319,20.806,20.806,0,0,1,20.4,6.231a33.035,33.035,0,0,1,13.736.944c3.355,1.035,6.414,2.587,8.6,5.466A17.929,17.929,0,0,1,45.742,20.51Z" transform="translate(-3.472 -5.087)"/>
      <path class="a" d="M92.377,7.174h9c.013.285.035.551.035.817q0,22,.015,44c0,.657-.179.9-.844,1.012-2.057.356-4.1.8-6.145,1.215-.322.065-.648.116-1.057.189V51.54c-.7.822-1.257,1.451-1.781,2.11a5.265,5.265,0,0,1-3.2,1.871c-5.6,1.241-11.164,2.608-16.744,3.919a2.363,2.363,0,0,1-1.049.1,15.766,15.766,0,0,1-9.765-6.522,15.242,15.242,0,0,1-2.218-6.938,66.03,66.03,0,0,1-.4-6.917c-.041-10.288-.018-20.577-.018-30.865V7.2h8.955V8.3c0,9.4-.029,18.793.02,28.188.013,2.474.181,4.955.43,7.418a8.917,8.917,0,0,0,7.405,8.376,14.363,14.363,0,0,0,13.364-3.444,11.018,11.018,0,0,0,3.306-6.606,43.66,43.66,0,0,0,.66-6.8c.073-9.061.03-18.123.03-27.185Z" transform="translate(-3.472 -5.087)"/>
      <path class="a" d="M114.132,50.6V7.2h8.031v6.9l.31.216a2.206,2.206,0,0,1,.207-.508c3.875-5.242,9.167-7.655,15.6-7.848a23.238,23.238,0,0,1,10.405,1.963c4.958,2.23,7.57,6.159,8.229,11.429a65.822,65.822,0,0,1,.47,7.413c.066,5.854.021,11.709.021,17.564v1.125l-8.983.745V45.187c0-5.994.036-11.989-.021-17.983a37.619,37.619,0,0,0-.466-5.485,8.869,8.869,0,0,0-7.2-7.746A14.406,14.406,0,0,0,127.6,16.8a11.915,11.915,0,0,0-3.922,7.461,35.407,35.407,0,0,0-.549,5.725c-.068,6.049-.038,12.1-.009,18.15,0,.789-.124,1.148-1.029,1.258C119.449,49.718,116.822,50.18,114.132,50.6Z" transform="translate(-3.472 -5.087)"/>
      <path class="a" d="M284.294,7.15c3.087,0,6.1-.017,9.1.033.241,0,.582.435.694.735q2.591,6.918,5.125,13.857,3.929,10.739,7.825,21.49c.6,1.668,1.078,3.381,1.642,5.168.1-.122.153-.163.172-.217,2.836-7.848,5.643-15.707,8.51-23.543,2.037-5.566,4.171-11.1,6.219-16.658A1.146,1.146,0,0,1,324.9,7.13c2.729.046,5.459.018,8.284.018-.109.352-.179.638-.285.91q-9.79,25.079-19.569,50.163c-.258.664-.607.8-1.27.859-2.662.248-5.115-.63-7.6-1.308a1.394,1.394,0,0,1-.727-.792q-5.143-13.093-10.245-26.2-4.447-11.392-8.9-22.784C284.493,7.74,284.41,7.48,284.294,7.15Z" transform="translate(-3.472 -5.087)"/>
      <path class="a" d="M211.992,44.244h-8.98c0-.494,0-.82,0-1.146-.011-5.938,0-11.877-.053-17.815a21.946,21.946,0,0,0-.426-3.813,8.9,8.9,0,0,0-7.244-7.52c-4.9-1.109-9.487-.318-13.36,3.128a12.338,12.338,0,0,0-3.709,7.671,43.006,43.006,0,0,0-.5,5.9c-.073,4.237-.022,8.476-.022,12.714v1.023l-8.913.384V7.2h8.055v6.868l.182.058c.167-.2.344-.388.5-.594a18.889,18.889,0,0,1,14.66-7.535,22.757,22.757,0,0,1,11.98,2.354,13.153,13.153,0,0,1,7.278,10.465,69.976,69.976,0,0,1,.569,8.408c.085,5.463.026,10.929.023,16.394C212.034,43.858,212,44.1,211.992,44.244Z" transform="translate(-3.472 -5.087)"/>
    </g>
    <path class="b" d="M283.536,36.186a30.973,30.973,0,0,1-4,15.273,471.886,471.886,0,0,0-56.756-5.846,31.109,31.109,0,1,1,60.759-9.427Z" transform="translate(-3.472 -5.087)"/>
  </g>
</svg>
